<svg width="251" height="290" viewBox="0 0 251 290" fill="none" xmlns="http://www.w3.org/2000/svg">
<path d="M70 70L1 1L17.5 55L35 108L55 84.5L70 70Z" fill="#5272E2"/>
<path d="M174 70L216 1L231 108L201 84.5L174 70Z" fill="#5272E2"/>
<path d="M70 70L1 1L17.5 55L35 108L55 84.5L70 70Z" stroke="black" stroke-width="0.5"/>
<path d="M174 70L216 1L231 108L201 84.5L174 70Z" stroke="black" stroke-width="0.5"/>
<g filter="url(#filter0_d_1_19)">
<circle cx="132" cy="167" r="115" fill="#5272E2"/>
<circle cx="132" cy="167" r="114.75" stroke="black" stroke-width="0.5"/>
</g>
<circle cx="132.5" cy="155.5" r="24" fill="#63A0C2" stroke="white"/>
<circle cx="199.5" cy="155.5" r="24" fill="#63A0C2" stroke="white"/>
<circle cx="166" cy="201" r="33.5" fill="#6B88EC" stroke="black"/>
<circle cx="174" cy="189" r="17" fill="#B4B1B1"/>
<circle cx="174" cy="189" r="16.5" stroke="black" stroke-opacity="0.32"/>
<defs>
<filter id="filter0_d_1_19" x="13" y="52" width="238" height="238" filterUnits="userSpaceOnUse" color-interpolation-filters="sRGB">
<feFlood flood-opacity="0" result="BackgroundImageFix"/>
<feColorMatrix in="SourceAlpha" type="matrix" values="0 0 0 0 0 0 0 0 0 0 0 0 0 0 0 0 0 0 127 0" result="hardAlpha"/>
<feOffset dy="4"/>
<feGaussianBlur stdDeviation="2"/>
<feComposite in2="hardAlpha" operator="out"/>
<feColorMatrix type="matrix" values="0 0 0 0 0 0 0 0 0 0 0 0 0 0 0 0 0 0 0.25 0"/>
<feBlend mode="normal" in2="BackgroundImageFix" result="effect1_dropShadow_1_19"/>
<feBlend mode="normal" in="SourceGraphic" in2="effect1_dropShadow_1_19" result="shape"/>
</filter>
</defs>
</svg>
